<svg xmlns="http://www.w3.org/2000/svg" cursor="default" viewBox="0 0 256 256">
    <g>
        <path fill="#ff8080" fill-rule="evenodd" stroke="#000" d="M41.742 239.094c2.85-69.342 1.018-191.27 27.8-200.131 9.284-3.072 18.235-7.113 25.583-11.026 21.51 9.708 45.92 4.936 66.956-2.89 8.427 4.018 21.864 11.164 33.185 16.408 17.11 7.925 22.171 139.286 23.698 196.976-7.111 1.66-15.233-1.118-21.174-1.27-1.808-24.678-4.626-42.931-6.93-68.596-3.176-35.36-4.636-73.759-9.451-70.087-.29-10.291 1.132-29.853-18.569-36.915-16.771-.944-51.351-1.1-68.283-.463-8.926 3.72-10.242 8.493-18.325 27.974-.253 52.364-11.664 91.389-13.42 149.247-5.372-.263-10.857 1.747-21.07.773z"/>
        <path fill="#ff2a2a" fill-rule="evenodd" stroke="#000" stroke-width=".5" d="M87.321 65.91c18.915 26.99 74.51 30.675 86.34 2.411l-11.518-6.696-67.232-1.071z"/>
        <path fill="#ff8080" fill-rule="evenodd" stroke="#000" d="M180.714 98.857c-7.04 22.04-8.509 29.597-6.028 55.708 1.877 19.762 11.368 48.797 13.15 70.43-13.618 13.635-100.2 15.418-114.661 3.653-.726-38.883 12.384-46.87 13.598-73.184.664-14.385-8.477-48.186-10.54-66.39 6.04-14.664 8.107-20.431 11.704-23.214 7.13 7.204 14.66 12.463 23.526 15.208 12.609 3.904 28.386 4.01 40.611.358 8.721-2.605 14.67-7.387 20.763-12.87 7.68 6.4 9.559 22.171 7.877 30.301z"/>
        <path fill="#ff8080" fill-rule="evenodd" stroke="#000" d="M73.176 225.364c-.176 2.119-.83 3.98.588 5.15 9.337 13.493 101.206 10.163 111.412 2.39 1.71-2.063 3.514-5.895 2.842-8.384-4.55 8.21-99.273 14.192-114.842.844z"/>
        <path fill="#faa" fill-rule="evenodd" stroke="#000" stroke-width=".5" d="M88.33 65.872l-1.41 1.605c8.12 7.875 13.985 11.716 22.306 14.482 8.075 2.684 27.96 5.248 46.197-.753 6.223-2.047 10.49-5.404 18.59-11.783l-1.768-1.894c-3.034 5.083-10.831 10.363-17.95 12.49-17.046 5.095-32.848 3.925-44.653-.303-8.668-3.103-16.7-9.374-21.312-13.844z"/>
        <path fill="#ffd5d5" fill-rule="evenodd" stroke="#000" stroke-width=".5" d="M76.205 89.348c2.241-9.37 6.54-19.678 10.67-23.884 3.131-3.188 6.462-5.782 10.09-5.893 1.746-.053 53.302-.479 63.214.893 6.984.967 13.497 6.219 17.321 12.143 4.862 7.533 4.643 26.072 4.643 26.072l-1.34.357s-.131-17.903-4.553-25.179c-3.333-5.483-8.947-11.32-15.357-11.607-25.734-1.153-42.69-.044-63.214-.893-3.25-.134-7.32 2.871-9.822 5.714-6.063 6.888-11.294 24.554-11.294 24.554z"/>
        <path fill="#ff8080" fill-rule="evenodd" stroke="#000" d="M41.812 236.149c-.073 2.118-.127 3.422.053 5.999 2.596 1.908 17.986 2.228 21.137-1.236 0 0 .02-3.323.003-6.17-8.566 2.583-15.914 1.355-21.193 1.407z"/>
        <path fill="none" stroke="#000" d="M62.857 44.393c6.924 13.675 11.999 25.963 16.072 37.5M182.094 98.402c4.058-19.004 7.883-38.135 15.531-55.18"/>
        <path fill="#ff8080" fill-rule="evenodd" stroke="#000" d="M197.684 234.908c-.074 2.118-.127 3.422.052 5.999 2.596 1.908 17.987 2.228 21.137-1.236 0 0 .021-3.323.004-6.17-8.566 2.584-15.914 1.355-21.193 1.407z"/>
        <path fill="#f55" fill-rule="evenodd" stroke="#000" stroke-linejoin="round" stroke-width="1.104" d="M107.87 2.264c10.34 1.976 25.203 3.342 37.516-.92 11.04 20.347-44.003 21.401-37.517.92z"/>
        <path fill="#ff8080" fill-rule="evenodd" stroke="#000" stroke-width="1.103" d="M95.125 27.937c10.95 19.055 56.722 11.377 66.956-2.89-13.444-7.868-15.068-14.396-13.712-20.784.427-2.01-.09-2.717-2.666-2.895 2.647 9.212-33.365 20.65-37.972.802-.53.025-5.141 1.925-3.415 4.572 2.506 3.842-1.079 15.074-9.19 21.195z"/>
    </g>
</svg>
