<svg xmlns="http://www.w3.org/2000/svg" xmlns:xlink="http://www.w3.org/1999/xlink" cursor="default" viewBox="0 0 256 256">
    <defs>
        <linearGradient id="linearGradient4390">
            <stop offset="0" stop-color="#faa"/>
            <stop offset="1" stop-color="#ff8080"/>
        </linearGradient>
        <linearGradient id="linearGradient4382">
            <stop offset="0" stop-color="#faa"/>
            <stop offset="1" stop-color="#ff8080"/>
        </linearGradient>
        <radialGradient id="radialGradient4388" cx="114.791" cy="933.444" r="31.127" fx="114.791" fy="933.444" gradientTransform="matrix(1.28657 -.07414 .1759 3.05242 -200.146 -1885.747)" gradientUnits="userSpaceOnUse" xlink:href="#linearGradient4382"/>
        <radialGradient id="radialGradient4398" cx="183.257" cy="925.601" r="32.757" fx="183.257" fy="925.601" gradientTransform="matrix(1.22514 -.13359 .36926 3.38653 -377.742 -2183.415)" gradientUnits="userSpaceOnUse" xlink:href="#linearGradient4390"/>
    </defs>
    <path fill="#f55" fill-rule="evenodd" d="M128.421 70.995c17.45-.959 18.692-8.905 19.924-24.81 1.203-15.533.267-31.8.267-31.8l-29.53-.575s-4.033 34.436-.773 48.242c3.26 13.807 8.075 9.9 10.112 8.943z"/>
    <g transform="translate(0 -796.362)">
        <path fill="#f55" fill-rule="evenodd" stroke="#000" stroke-width="1.102" d="M76.316 803.98c-2 7.173-3.338 15.565-4.455 21.856 21.509 4.921 45.42 8.14 41.694-16.566z"/>
        <path fill="#ff8080" fill-rule="evenodd" stroke="#000" stroke-width=".827" d="M79.587 813.794c9.238 1.578 19.555 2.174 23.92 2.136.428 3.023 1.154 4.887.164 8.583-4.538 2.408-17.28.953-25.963 1.636z"/>
        <path fill="url(#radialGradient4398)" fill-rule="evenodd" stroke="#000" stroke-width="1.102" d="M124.274 880.059c7.66 11.6 16.939 22.167 22.135 33.967l8.213 18.655c.817 2.32.327 4.35-.417 6.96-1.242 4.36-.95 8.262-1.114 13.504-1.878 16.427-.052 37.17-.14 55.267l.28 8.074-.28 19.211c14.194 8.586 34.943 5.894 39.955 1.184.536-1.108-1.468-8.592-3.202-14.548-4.535-15.577-3.653-19.262-4.177-27.425-.644-10.05 2.738-16.89 3.898-60.557 3.7-13.939-1.17-21.6-4.176-30.626-.622-4.078-1.15-7.918-2.436-11.694-4.398-12.915-10.354-38.021-11.694-41.485-2.63-6.796-4.924-8.566-7.309-11.694 1.76-4.845-3.035-10.251-5.429-15.452-5.111-6.962-3.889-6.661-4.037-12.947l-6.868 1.51 1.066 2.181c.427 5.428-1.17 14.27-1.964 26.652-.377 5.883-4.028 18.525-6.66 21.98-2.612 3.428-7.609 3.816-10.683 3.09-14.228 3.171-7.316 5.006-4.961 14.193z"/>
        <path fill="#f55" fill-rule="evenodd" stroke="#000" stroke-width="1.102" d="M158.172 822.843c-4.767-.127-6.718-6.26-10.162-10.023l6.612-.905c1.023 6.599 4.564 9.41 3.55 10.928z"/>
        <path fill="url(#radialGradient4388)" fill-rule="evenodd" stroke="#000" stroke-width="1.102" d="M71.866 824.653c-1.249 5.49-3.507 16.444 2.696 30.48 2.03 7.876 2.92 17.094 4.469 20.889.59 20.09 3.77 48.045 5.921 72.03 1.246 13.895 4.041 41.656 4.041 41.656 1.315 13.555.984 27.038 5.907 40.557-.01 3.44 1.01 3.794 2.165 3.74-2.068 6.317 3.491 9.456 5.611 14.027 9.85-4.01 20.431-4.931 28.842-8.12 1.63-2.37 7.63-4.87 0-12.798-2.121-17.75-8.537-42.47-8.662-44.69-1.009-17.916-4.035-35.821-2.953-53.747l1.378-22.837 3.544-26.579c1.896-5.75 3.178-5.873 3.596-11.904 1.432-4.29-.352-.12-5.53-4.785-3.425-3.086-1.67-17.469-1.245-24.408.416-6.793-.524-14.566-1.086-24.455-21.414-6.576-25.507-9.522-43.97-9.457 10.362 2.045 28.58 2.964 36.02 6.29-1.352 7.37-3.286 8.77-9.391 13.026-1.061.74-6.463.987-31.353 1.085z"/>
        <path fill="none" stroke="#000" stroke-dasharray="1.1025,.275625" stroke-width=".276" d="M71.443 827.854c14.73-2.108 22.021.463 33.48-2.088 9.089-4.606 7.14-9.558 10.65-14.339"/>
        <path fill="#ff8080" fill-rule="evenodd" stroke="#000" stroke-width=".827" d="M76.594 800.22c-1.345 2.136-1.464 5.714-1.531 8.214 6.533-.346 12.958-.756 20.116-.348 13.843.79 30.327 8.8 40.859 7.796l1.74-8.91c-13.272-2.041-25.866-3.267-39.327-5.498-6.73-1.116-15.387-1.466-21.857-1.253z"/>
        <path fill="none" stroke="#000" stroke-dasharray=".826875,.275625" stroke-width=".276" d="M74.755 807.355c29.798-3.125 26.614 1.442 59.653 7.448m-58.231-13.747c29.278.74 17.158 2.31 59.86 6.891"/>
        <path fill="#ff8080" fill-rule="evenodd" stroke="#000" stroke-width=".827" d="M136.426 806.883c-1.395 1.067-3.174 9.522-1.816 8.91.507-.23 20.29-2.973 20.29-2.973v-6.543z"/>
        <path fill="none" stroke="#000" stroke-dasharray=".826875,.275625" stroke-width=".276" d="M134.459 814.05c5.828-.372 13.066-1.308 20.16-2.186"/>
        <path fill="#faa" fill-rule="evenodd" stroke="#000" stroke-width=".827" d="M115.178 818.673c.197.099 3.543 1.034 3.543 1.034 1.26-5.332 2.736-10.664 1.97-15.996l-3.495-.345c.273 5.102-.732 10.205-2.018 15.307zm-35.99-8.65c.197.098 3.642-.443 3.642-.443.079-5.529.373-6.579 1.969-9.647l-3.495-.344c-2.04 3.182-1.814 4.938-2.116 10.434z"/>
        <path fill="none" stroke="#000" stroke-dasharray=".826875,.275625" stroke-width=".276" d="M135.968 808.304c6.195.207 12.39-.676 18.585-1.053"/>
        <path fill="#faa" fill-rule="evenodd" stroke="#000" stroke-width=".827" d="M149.434 821.675l2.362-.295c.35-5.775.928-11.73-1.132-15.602l-2.313.147c2.677 5.158 1.525 10.468 1.083 15.75z"/>
        <path fill="none" stroke="#000" stroke-width=".276" d="M87.8 975.836c1.332-40.32-3.015-96.863-6.681-151.462"/>
        <path fill="none" stroke="#000" stroke-width=".551" d="M74.645 855c-1.274-10.025-.788-19.944.905-29.79"/>
        <path fill="none" stroke="#000" stroke-width=".276" d="M156.521 1037.943c3.412-32.682-3.601-54.657-.59-80.916 2.025-7.482 3.92-14.979-.985-23.231-.288-21.105-17.134-43.933-26.525-66.439"/>
        <path fill-rule="evenodd" d="M97.059 1034.676c7.185-3.143 16.225-4.537 24.222-3.781-7.95-1.12-17.14-.115-24.64 2.761zm34.385-7.331l.037-.55c-5.486-.187-10.5 1.409-15.49 3.264 5.165-1.526 10.142-2.705 15.416-2.164zm-35.921 3.149c.77-1.012 1.966-1.68 3.374-2.185 1.4-.5 2.904-.807 4.217-1.173-1.328.182-2.892.312-4.368.644-1.467.33-2.952.88-4.05 1.984zm90.234-33.108c-.16.356-.326.707-.496 1.055-.994 6.582-3.46 12.924-5.705 19.223 2.437-6.187 5.134-12.508 6.354-19.114-.045-.39-.096-.778-.153-1.164zm1.673 16.636a11.07 11.07 0 01-.116.934c.676 3.433-.154 7.332-1.163 10.682 1.188-3.245 2.26-7.188 1.763-10.782a10.937 10.937 0 00-.483-.834z"/>
        <path fill="#ff2a2a" fill-rule="evenodd" d="M156.26 964.575c3.059-1.292 6.563-3.35 9.822-5.733 2.83-2.485 5.403-5.217 7.174-7.82-2.041 2.383-4.834 4.833-7.827 7.003-2.99 2.612-6.268 4.947-9.17 6.55zm1.008-9.186c2.974-1.06 5.927-3.277 8.344-5.497l.209-.22a41.359 41.359 0 002.908-3.447c.769-1.024 1.317-1.875 1.574-2.389a39.46 39.46 0 01-1.825 2.184 49.401 49.401 0 01-3.334 3.396c-2.218 2.335-5.004 4.713-7.876 5.973zm1.174-8.876c2.882-.536 5.176-1.582 7.034-2.852 1.965-1.613 3.291-3.45 4.236-5.042-1.127 1.487-2.588 3.144-4.614 4.54-1.662 1.384-3.82 2.613-6.656 3.354z"/>
        <path fill-rule="evenodd" d="M155.45 934.828c4.315-1.065 8.752-1.044 13.278-1.23-4.452-.181-9.003-.577-13.497.15z"/>
        <path fill="#ff2a2a" fill-rule="evenodd" d="M148.745 907.71c3.396 1.5 7.043 3.278 10.484 5.42 4.56 2.517 8.843 5.673 11.854 9.684-2.828-4.166-6.985-7.54-11.494-10.304-3.596-1.956-7.365-3.523-10.844-4.8zm-2.953-8.17c3.47 1.21 6.54 3.02 9.385 5.13 4.313 2.773 8.228 6.227 12.271 9.537-3.831-3.496-7.604-7.2-11.798-10.23-3.063-1.92-6.295-3.49-9.858-4.437zm-3.938-6.005c4.116.626 8.15 2.071 12.134 4 4.542 1.863 9.083 4.348 13.657 7.025-4.41-2.913-8.836-5.665-13.307-7.81-4.167-1.696-8.323-2.872-12.484-3.215zm-4.922-9.942c4.371 1.196 8.664 2.931 12.773 5.117 5.045 2.281 9.909 5.24 14.396 8.762a71.28 71.28 0 00-13.969-9.638c-4.314-1.925-8.752-3.36-13.2-4.241zm-2.264-9.057c3.468.679 6.7 1.84 9.752 3.322 4.66 1.7 9.075 4.15 13.381 6.916-4.051-3.09-8.306-5.935-12.91-8.057-3.299-1.14-6.693-1.91-10.223-2.18zM89.88 944.722c.955.495 1.84 1.09 2.695 1.71 1.61.534 3.221 1.187 4.884 1.637-1.506-.816-2.9-1.807-4.377-2.719-1.062-.277-2.12-.51-3.203-.628zm1.673 9.746c.585.225 1.175.44 1.771.64 1.385.073 2.758.068 4.135-.05a29.533 29.533 0 01-4.039-.646c-.617.033-1.24.05-1.867.056zm1.181 16.832c1.058-.596 2.16-1.082 3.273-1.52 1.251-.802 2.534-1.533 3.814-2.319-1.377.545-2.798 1.056-4.174 1.631-1.018.68-2 1.397-2.913 2.208z"/>
        <path fill-rule="evenodd" d="M123.102 984.245c.09-.764.097-1.578.039-2.43-1.398-4.87-5.229-10.656-6.782-14.846 1.358 4.578 4.767 10.044 5.887 15.075.346.731.64 1.468.856 2.201zm-3.495-48.875c-.157.15-.314.302-.47.457-1.757 5.615-1.991 12.012-1.892 17.755.1-5.77.538-12.093 2.457-17.568a29.637 29.637 0 01-.095-.643zm1.379-29.137l.55-.034c-.336-2.645-2.53-4.838-3.504-6.955.773 2.626 2.446 4.478 2.403 7.023l.55-.034zm42.406-67.991c-4.175 5.02-10.385 7.602-16.954 8.335 6.508-.36 13.095-2.563 17.781-7.606z"/>
        <path fill="#ff2a2a" fill-rule="evenodd" d="M159.475 833.291c-1.228.521-2.529 1.063-3.714 1.721-.321.254-.63.518-.924.794-1.28 1.205-2.208 2.604-2.45 4.376.455-1.707 1.549-2.91 2.874-3.864.308-.222.632-.433.967-.634.995-.859 2.131-1.623 3.247-2.393zm9.745 15.75a20.166 20.166 0 00-5.67.343c-2.685.77-4.972 2.03-7.62 2.906 2.806-.75 4.975-1.804 7.743-2.423 1.582-.49 3.36-.824 5.547-.826z"/>
        <path fill="#faa" fill-rule="evenodd" stroke="#000" stroke-width="1.102" d="M102.07 1046.556l.487 2.297c10.277.63 23.255-6.616 29.513-6.334l.279-3.48c-10.76 1.896-15.639 4.379-30.279 7.517zm50.812-12.042c-.56 1.1-.286 1.92-.348 2.854 9.164 5.887 26.811 8.435 41.068.905.61-1.112.115-2.065-.557-2.993-14.584 7.795-27.606 5.079-40.163-.766z"/>
        <path fill="none" stroke="#000" stroke-dasharray="1.1025,.275625" stroke-width=".276" d="M79.463 815.704c-1.212.45 22.356 2.859 24.215 2.264m-2.214-1.871c.944 3.987.75 5.824.541 7.63"/>
        <ellipse cx="319.631" cy="763.513" fill="#999" stroke="#000" stroke-linecap="round" stroke-linejoin="bevel" stroke-width=".822" rx="1.836" ry="2.695" transform="matrix(.97715 .21253 -.22902 .97342 0 0)"/>
        <ellipse cx="299.781" cy="755.248" fill="#333" stroke="#000" stroke-linecap="round" stroke-linejoin="bevel" stroke-width=".322" rx=".679" ry="1.116" transform="matrix(.97095 .23927 -.20332 .97911 0 0)"/>
        <path fill="none" stroke="#000" stroke-dasharray=".826875,.275625" stroke-width=".276" d="M128.421 867.357c4.39.915 10.85-.04 13.668-5.391 2.818-5.351 5.467-16.64 5.868-22.368.394-5.614.665-11.04 1.477-17.923"/>
    </g>
    <path fill="none" stroke="#000" stroke-dasharray=".826875,.275625" stroke-width=".276" d="M128.76 70.046c-3.325-1.079-6.732-.799-8.71-5.909-1.976-5.11.495-21.624.141-27.78-.354-6.157-.276-11.66-1.47-13.012"/>
</svg>
