<?xml version="1.0" encoding="UTF-8" standalone="no"?>
<svg
   xmlns:dc="http://purl.org/dc/elements/1.1/"
   xmlns:cc="http://creativecommons.org/ns#"
   xmlns:rdf="http://www.w3.org/1999/02/22-rdf-syntax-ns#"
   xmlns:svg="http://www.w3.org/2000/svg"
   xmlns="http://www.w3.org/2000/svg"
   xmlns:xlink="http://www.w3.org/1999/xlink"
   xmlns:sodipodi="http://sodipodi.sourceforge.net/DTD/sodipodi-0.dtd"
   xmlns:inkscape="http://www.inkscape.org/namespaces/inkscape"
   cursor="default"
   viewBox="0 0 256 256"
   version="1.1"
   id="svg72"
   sodipodi:docname="leg_crotchless_jeans.svg"
   inkscape:version="0.92.3 (2405546, 2018-03-11)">
  <metadata
     id="metadata76">
    <rdf:RDF>
      <cc:Work
         rdf:about="">
        <dc:format>image/svg+xml</dc:format>
        <dc:type
           rdf:resource="http://purl.org/dc/dcmitype/StillImage" />
        <dc:title />
      </cc:Work>
    </rdf:RDF>
  </metadata>
  <sodipodi:namedview
     pagecolor="#ffffff"
     bordercolor="#666666"
     borderopacity="1"
     objecttolerance="10"
     gridtolerance="10"
     guidetolerance="10"
     inkscape:pageopacity="0"
     inkscape:pageshadow="2"
     inkscape:window-width="1280"
     inkscape:window-height="977"
     id="namedview74"
     showgrid="false"
     inkscape:zoom="3.6875"
     inkscape:cx="119.83532"
     inkscape:cy="183.613"
     inkscape:window-x="-4"
     inkscape:window-y="-4"
     inkscape:window-maximized="1"
     inkscape:current-layer="svg72"
     inkscape:measure-start="0,0"
     inkscape:measure-end="0,0" />
  <defs
     id="defs14">
    <linearGradient
       id="linearGradient4390">
      <stop
         offset="0"
         stop-color="#faa"
         id="stop2" />
      <stop
         offset="1"
         stop-color="#ff8080"
         id="stop4" />
    </linearGradient>
    <linearGradient
       id="linearGradient4382">
      <stop
         offset="0"
         stop-color="#faa"
         id="stop7" />
      <stop
         offset="1"
         stop-color="#ff8080"
         id="stop9" />
    </linearGradient>
    <radialGradient
       id="radialGradient4388"
       cx="114.791"
       cy="933.444"
       r="31.127"
       fx="114.791"
       fy="933.444"
       gradientTransform="matrix(1.28657 -.07414 .1759 3.05242 -200.146 -1885.747)"
       gradientUnits="userSpaceOnUse"
       xlink:href="#linearGradient4382" />
    <radialGradient
       id="radialGradient4398"
       cx="183.257"
       cy="925.601"
       r="32.757"
       fx="183.257"
       fy="925.601"
       gradientTransform="matrix(1.22514 -.13359 .36926 3.38653 -377.742 -2183.415)"
       gradientUnits="userSpaceOnUse"
       xlink:href="#linearGradient4390" />
  </defs>
  <path
     style="fill:#ff5555;fill-opacity:1;fill-rule:evenodd;stroke:#000000;stroke-width:0;stroke-linecap:butt;stroke-linejoin:miter;stroke-miterlimit:4;stroke-dasharray:none;stroke-opacity:1"
     d="m 128.421,70.995 c 17.44996,-0.958789 18.6924,-8.904547 19.92408,-24.810902 1.20272,-15.53238 0.26719,-31.79889 0.26719,-31.79889 l -29.53069,-0.575273 c 0,0 -4.03256,34.436001 -0.77268,48.24256 3.25988,13.80656 8.07484,9.899038 10.1121,8.942505 z"
     id="path4790"
     inkscape:connector-curvature="0"
     sodipodi:nodetypes="csccsc" />
  <g
     transform="translate(0,-796.362)"
     id="g70">
    <path
       d="m 76.316,803.98 c -2,7.173 -3.338,15.565 -4.455,21.856 21.509,4.921 45.42,8.14 41.694,-16.566 z"
       id="path16"
       inkscape:connector-curvature="0"
       style="fill:#ff5555;fill-rule:evenodd;stroke:#000000;stroke-width:1.102" />
    <path
       d="m 79.587,813.794 c 9.238,1.578 19.555,2.174 23.92,2.136 0.428,3.023 1.154,4.887 0.164,8.583 -4.538,2.408 -17.28,0.953 -25.963,1.636 z"
       id="path18"
       inkscape:connector-curvature="0"
       style="fill:#ff8080;fill-rule:evenodd;stroke:#000000;stroke-width:0.82700002" />
    <path
       d="m 124.274,880.059 c 7.66,11.6 16.939,22.167 22.135,33.967 l 8.213,18.655 c 0.817,2.32 0.327,4.35 -0.417,6.96 -1.242,4.36 -0.95,8.262 -1.114,13.504 -1.878,16.427 -0.052,37.17 -0.14,55.267 l 0.28,8.074 -0.28,19.211 c 14.194,8.586 34.943,5.894 39.955,1.184 0.536,-1.108 -1.468,-8.592 -3.202,-14.548 -4.535,-15.577 -3.653,-19.262 -4.177,-27.425 -0.644,-10.05 2.738,-16.89 3.898,-60.557 3.7,-13.939 -1.17,-21.6 -4.176,-30.626 -0.622,-4.078 -1.15,-7.918 -2.436,-11.694 -4.398,-12.915 -10.354,-38.021 -11.694,-41.485 -2.63,-6.796 -4.924,-8.566 -7.309,-11.694 1.76,-4.845 -3.035,-10.251 -5.429,-15.452 -5.111,-6.962 -3.889,-6.661 -4.037,-12.947 l -6.86761,1.51055 1.06575,2.18059 c 0.42698,5.42737 -1.16982,14.26896 -1.96419,26.65164 -0.37742,5.88322 -4.02793,18.52537 -6.65952,21.97967 -2.61219,3.42881 -7.60912,3.81662 -10.68387,3.09003 -14.228,3.172 -7.31552,5.00652 -4.96052,14.19352 z"
       id="path20"
       inkscape:connector-curvature="0"
       style="fill:url(#radialGradient4398);fill-rule:evenodd;stroke:#000000;stroke-width:1.102"
       sodipodi:nodetypes="cccccccccsccccccccccssccc" />
    <path
       d="m 158.172,822.843 c -4.767,-0.127 -6.718,-6.26 -10.162,-10.023 l 6.612,-0.905 c 1.023,6.599 4.564,9.41 3.55,10.928 z"
       id="path22"
       inkscape:connector-curvature="0"
       style="fill:#ff5555;fill-rule:evenodd;stroke:#000000;stroke-width:1.102" />
    <path
       d="m 71.866,824.653 c -1.249,5.49 -3.507,16.444 2.696,30.48 2.03,7.876 2.92,17.094 4.469,20.889 0.59,20.09 3.77,48.045 5.921,72.03 1.246,13.895 4.041,41.656 4.041,41.656 1.315,13.555 0.984,27.038 5.907,40.557 -0.01,3.44 1.01,3.794 2.165,3.74 -2.068,6.317 3.491,9.456 5.611,14.027 9.85,-4.01 20.431,-4.931 28.842,-8.12 1.63,-2.37 7.63,-4.87 0,-12.798 -2.121,-17.75 -8.537,-42.47 -8.662,-44.69 -1.009,-17.916 -4.035,-35.821 -2.953,-53.747 l 1.378,-22.837 3.544,-26.579 c 1.89597,-5.74968 3.17816,-5.87276 3.596,-11.904 1.43231,-4.29044 -0.35183,-0.11922 -5.52994,-4.78516 -3.42461,-3.08588 -1.67072,-17.46846 -1.24545,-24.40829 0.41621,-6.79251 -0.52406,-14.56537 -1.08574,-24.45472 C 99.145871,807.13283 95.053,804.187 76.59,804.252 c 10.362,2.045 28.58,2.964 36.02,6.29 -1.352,7.37 -3.286,8.77 -9.391,13.026 -1.061,0.74 -6.463,0.987 -31.353,1.085 z"
       id="path24"
       inkscape:connector-curvature="0"
       style="fill:url(#radialGradient4388);fill-rule:evenodd;stroke:#000000;stroke-width:1.102"
       sodipodi:nodetypes="cccccccccccccccssccccc" />
    <path
       d="m 71.443,827.854 c 14.73,-2.108 22.021,0.463 33.48,-2.088 9.089,-4.606 7.14,-9.558 10.65,-14.339"
       id="path26"
       inkscape:connector-curvature="0"
       style="fill:none;stroke:#000000;stroke-width:0.27599999;stroke-dasharray:1.1025, 0.275625" />
    <path
       d="m 76.594,800.22 c -1.345,2.136 -1.464,5.714 -1.531,8.214 6.533,-0.346 12.958,-0.756 20.116,-0.348 13.843,0.79 30.327,8.8 40.859,7.796 l 1.74,-8.91 c -13.272,-2.041 -25.866,-3.267 -39.327,-5.498 -6.73,-1.116 -15.387,-1.466 -21.857,-1.253 z"
       id="path28"
       inkscape:connector-curvature="0"
       style="fill:#ff8080;fill-rule:evenodd;stroke:#000000;stroke-width:0.82700002" />
    <path
       d="m 74.755,807.355 c 29.798,-3.125 26.614,1.442 59.653,7.448 M 76.177,801.056 c 29.278,0.74 17.158,2.31 59.86,6.891"
       id="path30"
       inkscape:connector-curvature="0"
       style="fill:none;stroke:#000000;stroke-width:0.27599999;stroke-dasharray:0.826875, 0.275625" />
    <path
       d="m 136.426,806.883 c -1.395,1.067 -3.174,9.522 -1.816,8.91 0.507,-0.23 20.29,-2.973 20.29,-2.973 v -6.543 z"
       id="path32"
       inkscape:connector-curvature="0"
       style="fill:#ff8080;fill-rule:evenodd;stroke:#000000;stroke-width:0.82700002" />
    <path
       d="m 134.459,814.05 c 5.828,-0.372 13.066,-1.308 20.16,-2.186"
       id="path34"
       inkscape:connector-curvature="0"
       style="fill:none;stroke:#000000;stroke-width:0.27599999;stroke-dasharray:0.826875, 0.275625" />
    <path
       d="m 115.178,818.673 c 0.197,0.099 3.543,1.034 3.543,1.034 1.26,-5.332 2.736,-10.664 1.97,-15.996 l -3.495,-0.345 c 0.273,5.102 -0.732,10.205 -2.018,15.307 z m -35.99,-8.65 c 0.197,0.098 3.642,-0.443 3.642,-0.443 0.079,-5.529 0.373,-6.579 1.969,-9.647 l -3.495,-0.344 c -2.04,3.182 -1.814,4.938 -2.116,10.434 z"
       id="path36"
       inkscape:connector-curvature="0"
       style="fill:#ffaaaa;fill-rule:evenodd;stroke:#000000;stroke-width:0.82700002" />
    <path
       d="m 135.968,808.304 c 6.195,0.207 12.39,-0.676 18.585,-1.053"
       id="path38"
       inkscape:connector-curvature="0"
       style="fill:none;stroke:#000000;stroke-width:0.27599999;stroke-dasharray:0.826875, 0.275625" />
    <path
       d="m 149.434,821.675 2.362,-0.295 c 0.35,-5.775 0.928,-11.73 -1.132,-15.602 l -2.313,0.147 c 2.677,5.158 1.525,10.468 1.083,15.75 z"
       id="path40"
       inkscape:connector-curvature="0"
       style="fill:#ffaaaa;fill-rule:evenodd;stroke:#000000;stroke-width:0.82700002" />
    <path
       d="m 87.8,975.836 c 1.332,-40.32 -3.015,-96.863 -6.681,-151.462"
       id="path42"
       inkscape:connector-curvature="0"
       style="fill:none;stroke:#000000;stroke-width:0.27599999" />
    <path
       d="M 74.645,855 C 73.371,844.975 73.857,835.056 75.55,825.21"
       id="path44"
       inkscape:connector-curvature="0"
       style="fill:none;stroke:#000000;stroke-width:0.551" />
    <path
       d="m 156.521,1037.943 c 3.412,-32.682 -3.601,-54.657 -0.59,-80.916 2.025,-7.482 3.92,-14.979 -0.985,-23.231 -0.288,-21.105 -17.134,-43.933 -26.525,-66.439"
       id="path46"
       inkscape:connector-curvature="0"
       style="fill:none;stroke:#000000;stroke-width:0.27599999" />
    <path
       d="m 97.059,1034.676 c 7.185,-3.143 16.225,-4.537 24.222,-3.781 -7.95,-1.12 -17.14,-0.115 -24.64,2.761 z m 34.385,-7.331 0.037,-0.55 c -5.486,-0.187 -10.5,1.409 -15.49,3.264 5.165,-1.526 10.142,-2.705 15.416,-2.164 z m -35.921,3.149 c 0.77,-1.012 1.966,-1.68 3.374,-2.185 1.4,-0.5 2.904,-0.807 4.217,-1.173 -1.328,0.182 -2.892,0.312 -4.368,0.644 -1.467,0.33 -2.952,0.88 -4.05,1.984 z m 90.234,-33.108 c -0.16,0.356 -0.326,0.707 -0.496,1.055 -0.994,6.582 -3.46,12.924 -5.705,19.223 2.437,-6.187 5.134,-12.508 6.354,-19.114 -0.045,-0.39 -0.096,-0.778 -0.153,-1.164 z m 1.673,16.636 a 11.07,11.07 0 0 1 -0.116,0.934 c 0.676,3.433 -0.154,7.332 -1.163,10.682 1.188,-3.245 2.26,-7.188 1.763,-10.782 a 10.937,10.937 0 0 0 -0.483,-0.834 z"
       id="path48"
       inkscape:connector-curvature="0"
       style="fill-rule:evenodd" />
    <path
       d="m 156.26,964.575 c 3.059,-1.292 6.563,-3.35 9.822,-5.733 2.83,-2.485 5.403,-5.217 7.174,-7.82 -2.041,2.383 -4.834,4.833 -7.827,7.003 -2.99,2.612 -6.268,4.947 -9.17,6.55 z m 1.008,-9.186 c 2.974,-1.06 5.927,-3.277 8.344,-5.497 l 0.209,-0.22 a 41.359,41.359 0 0 0 2.908,-3.447 c 0.769,-1.024 1.317,-1.875 1.574,-2.389 a 39.46,39.46 0 0 1 -1.825,2.184 49.401,49.401 0 0 1 -3.334,3.396 c -2.218,2.335 -5.004,4.713 -7.876,5.973 z m 1.174,-8.876 c 2.882,-0.536 5.176,-1.582 7.034,-2.852 1.965,-1.613 3.291,-3.45 4.236,-5.042 -1.127,1.487 -2.588,3.144 -4.614,4.54 -1.662,1.384 -3.82,2.613 -6.656,3.354 z"
       id="path50"
       inkscape:connector-curvature="0"
       style="fill:#ff2a2a;fill-rule:evenodd" />
    <path
       d="m 155.45,934.828 c 4.315,-1.065 8.752,-1.044 13.278,-1.23 -4.452,-0.181 -9.003,-0.577 -13.497,0.15 z"
       id="path52"
       inkscape:connector-curvature="0"
       style="fill-rule:evenodd" />
    <path
       d="m 148.745,907.71 c 3.396,1.5 7.043,3.278 10.484,5.42 4.56,2.517 8.843,5.673 11.854,9.684 -2.828,-4.166 -6.985,-7.54 -11.494,-10.304 -3.596,-1.956 -7.365,-3.523 -10.844,-4.8 z m -2.953,-8.17 c 3.47,1.21 6.54,3.02 9.385,5.13 4.313,2.773 8.228,6.227 12.271,9.537 -3.831,-3.496 -7.604,-7.2 -11.798,-10.23 -3.063,-1.92 -6.295,-3.49 -9.858,-4.437 z m -3.938,-6.005 c 4.116,0.626 8.15,2.071 12.134,4 4.542,1.863 9.083,4.348 13.657,7.025 -4.41,-2.913 -8.836,-5.665 -13.307,-7.81 -4.167,-1.696 -8.323,-2.872 -12.484,-3.215 z m -4.922,-9.942 c 4.371,1.196 8.664,2.931 12.773,5.117 5.045,2.281 9.909,5.24 14.396,8.762 a 71.28,71.28 0 0 0 -13.969,-9.638 c -4.314,-1.925 -8.752,-3.36 -13.2,-4.241 z m -2.264,-9.057 c 3.468,0.679 6.7,1.84 9.752,3.322 4.66,1.7 9.075,4.15 13.381,6.916 -4.051,-3.09 -8.306,-5.935 -12.91,-8.057 -3.299,-1.14 -6.693,-1.91 -10.223,-2.18 z M 89.88,944.722 c 0.955,0.495 1.84,1.09 2.695,1.71 1.61,0.534 3.221,1.187 4.884,1.637 -1.506,-0.816 -2.9,-1.807 -4.377,-2.719 -1.062,-0.277 -2.12,-0.51 -3.203,-0.628 z m 1.673,9.746 c 0.585,0.225 1.175,0.44 1.771,0.64 1.385,0.073 2.758,0.068 4.135,-0.05 a 29.533,29.533 0 0 1 -4.039,-0.646 c -0.617,0.033 -1.24,0.05 -1.867,0.056 z m 1.181,16.832 c 1.058,-0.596 2.16,-1.082 3.273,-1.52 1.251,-0.802 2.534,-1.533 3.814,-2.319 -1.377,0.545 -2.798,1.056 -4.174,1.631 -1.018,0.68 -2,1.397 -2.913,2.208 z"
       id="path54"
       inkscape:connector-curvature="0"
       style="fill:#ff2a2a;fill-rule:evenodd" />
    <path
       d="m 123.102,984.245 c 0.09,-0.764 0.097,-1.578 0.039,-2.43 -1.398,-4.87 -5.229,-10.656 -6.782,-14.846 1.358,4.578 4.767,10.044 5.887,15.075 0.346,0.731 0.64,1.468 0.856,2.201 z m -3.495,-48.875 c -0.157,0.15 -0.314,0.302 -0.47,0.457 -1.757,5.615 -1.991,12.012 -1.892,17.755 0.1,-5.77 0.538,-12.093 2.457,-17.568 -0.034,-0.21398 -0.0657,-0.42832 -0.095,-0.643 z m 1.379,-29.137 0.55,-0.034 c -0.336,-2.645 -2.53,-4.838 -3.504,-6.955 0.773,2.626 2.446,4.478 2.403,7.023 l 0.55,-0.034 z m 42.406,-67.991 c -4.175,5.02 -10.38519,7.60231 -16.95419,8.33531 6.508,-0.36 13.09519,-2.56331 17.78119,-7.60631 z"
       id="path56"
       inkscape:connector-curvature="0"
       style="fill-rule:evenodd"
       sodipodi:nodetypes="ccccccccccccccccccccc" />
    <path
       d="m 159.475,833.291 c -1.228,0.521 -2.529,1.063 -3.714,1.721 -0.321,0.254 -0.63,0.518 -0.924,0.794 -1.28,1.205 -2.208,2.604 -2.45,4.376 0.455,-1.707 1.549,-2.91 2.874,-3.864 0.308,-0.222 0.632,-0.433 0.967,-0.634 0.995,-0.859 2.131,-1.623 3.247,-2.393 z m 9.745,15.75 c -1.89672,-0.15375 -3.80565,-0.0383 -5.67,0.343 -2.685,0.77 -4.972,2.03 -7.62,2.906 2.806,-0.75 4.975,-1.804 7.743,-2.423 1.582,-0.49 3.36,-0.824 5.547,-0.826 z"
       id="path58"
       inkscape:connector-curvature="0"
       style="fill:#ff2a2a;fill-rule:evenodd"
       sodipodi:nodetypes="cccccccccccc" />
    <path
       d="m 102.07,1046.556 0.487,2.297 c 10.277,0.63 23.255,-6.616 29.513,-6.334 l 0.279,-3.48 c -10.76,1.896 -15.639,4.379 -30.279,7.517 z m 50.812,-12.042 c -0.56,1.1 -0.286,1.92 -0.348,2.854 9.164,5.887 26.811,8.435 41.068,0.905 0.61,-1.112 0.115,-2.065 -0.557,-2.993 -14.584,7.795 -27.606,5.079 -40.163,-0.766 z"
       id="path60"
       inkscape:connector-curvature="0"
       style="fill:#ffaaaa;fill-rule:evenodd;stroke:#000000;stroke-width:1.102" />
    <path
       d="m 79.463,815.704 c -1.212,0.45 22.356,2.859 24.215,2.264 m -2.214,-1.871 c 0.944,3.987 0.75,5.824 0.541,7.63"
       id="path62"
       inkscape:connector-curvature="0"
       style="fill:none;stroke:#000000;stroke-width:0.27599999;stroke-dasharray:1.1025, 0.275625" />
    <ellipse
       cx="319.63101"
       cy="763.513"
       rx="1.836"
       ry="2.6949999"
       transform="matrix(0.97715,0.21253,-0.22902,0.97342,0,0)"
       id="ellipse64"
       style="fill:#999999;stroke:#000000;stroke-width:0.82200003;stroke-linecap:round;stroke-linejoin:bevel" />
    <ellipse
       cx="299.78101"
       cy="755.24799"
       rx="0.67900002"
       ry="1.1160001"
       transform="matrix(0.97095,0.23927,-0.20332,0.97911,0,0)"
       id="ellipse66"
       style="fill:#333333;stroke:#000000;stroke-width:0.322;stroke-linecap:round;stroke-linejoin:bevel" />
    <path
       d="m 128.421,867.357 c 4.38972,0.91465 10.8498,-0.0399 13.66808,-5.39111 2.81829,-5.35124 5.46707,-16.64039 5.86841,-22.36806 0.39333,-5.61345 0.66486,-11.0397 1.47651,-17.92283"
       id="path68"
       inkscape:connector-curvature="0"
       style="fill:none;stroke:#000000;stroke-width:0.27599999;stroke-dasharray:0.826875, 0.275625"
       sodipodi:nodetypes="czsc" />
  </g>
  <path
     d="m 128.75998,70.04585 c -3.32541,-1.078364 -6.73202,-0.798367 -8.70921,-5.908734 -1.9772,-5.110367 0.49467,-21.623781 0.14062,-27.780445 C 119.83733,30.200008 119.91534,24.696896 118.721,23.345"
     id="path68-9"
     inkscape:connector-curvature="0"
     style="fill:none;stroke:#000000;stroke-width:0.27599999;stroke-dasharray:0.826875, 0.275625"
     sodipodi:nodetypes="czsc" />
</svg>
